<svg id="exportSVG" visibility="visible" xmlns="http://www.w3.org/2000/svg" xmlns:xlink="http://www.w3.org/1999/xlink" version="1.1" data-info="draw.ninja" data-name="checkin2" viewBox="0 0 18 18" width="18" height="18" style="position: fixed; top: 0px; left: 0px;"><defs id="defsExport"><filter id="filter0"><feGaussianBlur stdDeviation="0"></feGaussianBlur></filter><pattern id="patternImage" patternUnits="userSpaceOnUse" x="0" y="0" width="1" height="1" data-x="0" data-y="0" data-width="1" data-height="1" data-multx="1" data-multy="1" patternTransform="matrix(1,0,0,1,0,0)" data-transs="0" data-transf="0" data-source="patternImage" data-draw="1" fill="#000000" fill-opacity="1"></pattern><pattern id="pattern0" patternUnits="userSpaceOnUse" x="0" y="0" width="10" height="10" data-x="0" data-y="0" data-width="10" data-height="10" data-multx="1" data-multy="1" stroke="none" patternTransform="matrix(1,0,0,1,0,0)" data-transs="0" data-transf="0" data-source="Pattern 0" data-draw="1" fill="#000000" fill-opacity="1"><path transform="matrix(1,0,0,1,0,0)" d="M0 0 L5 0 L5 5 L0 5 L0 0 Z"></path></pattern><pattern id="pattern1" patternUnits="userSpaceOnUse" x="0" y="0" width="10" height="10" data-x="0" data-y="0" data-width="10" data-height="10" data-multx="1" data-multy="1" stroke="none" patternTransform="matrix(1,0,0,1,0,0)" data-transs="0" data-transf="0" data-source="Pattern 1" data-draw="1" fill="#000000" fill-opacity="1"><path transform="matrix(1,0,0,1,0,0)" d="M0 5 L5 0 L10 5 L5 10 L0 5 Z"></path></pattern><pattern id="pattern2" patternUnits="userSpaceOnUse" x="0" y="0" width="10" height="10" data-x="0" data-y="0" data-width="10" data-height="10" data-multx="1" data-multy="1" stroke="none" patternTransform="matrix(1,0,0,1,0,0)" data-transs="0" data-transf="0" data-source="Pattern 2" data-draw="1" fill="#000000" fill-opacity="1"><path transform="matrix(1,0,0,1,0,0)" d="M0 9 L5 1 L10 9 L0 9 Z"></path></pattern><pattern id="pattern3" patternUnits="userSpaceOnUse" x="0" y="0" width="10" height="10" data-x="0" data-y="0" data-width="10" data-height="10" data-multx="1" data-multy="1" stroke="none" patternTransform="matrix(1,0,0,1,0,0)" data-transs="0" data-transf="0" data-source="Pattern 3" data-draw="1" fill="#000000" fill-opacity="1"><path transform="matrix(1,0,0,1,0,0)" d="M0 5 C0 2.25 2.25 0 5 0 C7.75 0 10 2.25 10 5 C10 7.75 7.75 10 5 10 C2.25 10 0 7.75 0 5 Z"></path></pattern><pattern id="pattern4" patternUnits="userSpaceOnUse" x="0" y="0" width="10" height="10" data-x="0" data-y="0" data-width="10" data-height="10" data-multx="1" data-multy="1" stroke="none" patternTransform="matrix(1,0,0,1,0,0)" data-transs="0" data-transf="0" data-source="Pattern 4" data-draw="1" fill="#000000" fill-opacity="1"><path transform="matrix(1,0,0,1,0,0)" d="M0 5 L4 4 L5 0 L6 4 L10 5 L6 6 L5 10 L4 6 L0 5 Z"></path></pattern><pattern id="pattern5" patternUnits="userSpaceOnUse" x="0" y="0" width="10" height="10" data-x="0" data-y="0" data-width="10" data-height="10" data-multx="1" data-multy="1" stroke="none" patternTransform="matrix(1,0,0,1,0,0)" data-transs="0" data-transf="0" data-source="Pattern 5" data-draw="1" fill="#000000" fill-opacity="1"><path transform="matrix(1,0,0,1,0,0)" d="M5 10 C-5 2.75 3 -1.75 5 1 C7 -1.75 15 2.75 5 10 Z"></path></pattern><pattern id="pattern6" patternUnits="userSpaceOnUse" x="0" y="0" width="10" height="10" data-x="0" data-y="0" data-width="10" data-height="10" data-multx="1" data-multy="1" stroke="none" patternTransform="matrix(1,0,0,1,0,0)" data-transs="0" data-transf="0" data-source="Pattern 6" data-draw="1" fill="#000000" fill-opacity="1"><path transform="matrix(1,0,0,1,0,0)" d="M3 0 L7 0 L7 10 L3 10 L3 0 Z"></path></pattern><pattern id="pattern7" patternUnits="userSpaceOnUse" x="0" y="0" width="10" height="10" data-x="0" data-y="0" data-width="10" data-height="10" data-multx="1" data-multy="1" stroke="none" patternTransform="matrix(1,0,0,1,0,0)" data-transs="0" data-transf="0" data-source="Pattern 7" data-draw="1" fill="#000000" fill-opacity="1"><path transform="matrix(1,0,0,1,0,0)" d="M10 3 L10 7 L0 7 L0 3 L10 3 Z"></path></pattern><pattern id="pattern8" patternUnits="userSpaceOnUse" x="0" y="0" width="10" height="10" data-x="0" data-y="0" data-width="10" data-height="10" data-multx="1" data-multy="1" stroke="none" patternTransform="matrix(1,0,0,1,0,0)" data-transs="0" data-transf="0" data-source="Pattern 8" data-draw="1" fill="#000000" fill-opacity="1"><path transform="matrix(1,0,0,1,0,0)" d="M0 10 L3 3 L10 0 L7 7 L0 10 Z"></path></pattern><pattern id="pattern9" patternUnits="userSpaceOnUse" x="0" y="0" width="10" height="10" data-x="0" data-y="0" data-width="10" data-height="10" data-multx="1" data-multy="1" stroke="none" patternTransform="matrix(1,0,0,1,0,0)" data-transs="0" data-transf="0" data-source="Pattern 9" data-draw="1" fill="#000000" fill-opacity="1"><path transform="matrix(1,0,0,1,0,0)" d="M0 4 L10 4 L10 6 L0 6 L0 4 Z M4 10 L4 0 L6 0 L6 10 L4 10 Z"></path></pattern><linearGradient id="linearSystem" gradientUnits="objectBoundingBox" x1="0%" y1="50%" x2="100%" y2="50%" spreadMethod="pad"><stop offset="50%" stop-color="#D0D0D0" stop-opacity="1"></stop><stop offset="100%" stop-color="transparent" stop-opacity="1"></stop></linearGradient><linearGradient id="linearSystem1" gradientUnits="objectBoundingBox" x1="0%" y1="50%" x2="100%" y2="50%" spreadMethod="pad"><stop offset="30%" stop-color="#D0D0D0" stop-opacity="1"></stop><stop offset="100%" stop-color="transparent" stop-opacity="1"></stop></linearGradient><linearGradient id="linearSystem2" gradientUnits="objectBoundingBox" x1="0%" y1="50%" x2="50%" y2="50%" spreadMethod="repeat"><stop offset="30%" stop-color="#D0D0D0" stop-opacity="1"></stop><stop offset="100%" stop-color="transparent" stop-opacity="1"></stop></linearGradient><linearGradient id="linearSystem3" gradientUnits="objectBoundingBox" x1="0%" y1="50%" x2="50%" y2="50%" spreadMethod="reflect"><stop offset="30%" stop-color="#D0D0D0" stop-opacity="1"></stop><stop offset="100%" stop-color="transparent" stop-opacity="1"></stop></linearGradient><radialGradient id="radialSystem" gradientUnits="objectBoundingBox" r="0.5" cx="0.5" fx="0.5" cy="0.5" fy="0.5" spreadMethod="pad"><stop offset="50%" stop-color="#D0D0D0" stop-opacity="1"></stop><stop offset="100%" stop-color="transparent" stop-opacity="1"></stop></radialGradient><pattern id="patternSystem" patternUnits="userSpaceOnUse" x="0" y="0" width="6" height="8"><path stroke="#D0D0D0" stroke-width="5" fill="none" d="M0 0 L0 10"></path></pattern><linearGradient id="linear0" gradientUnits="objectBoundingBox" x1="0%" y1="50%" x2="100%" y2="50%" spreadMethod="pad"><stop offset="0%" stop-color="#FF8000" stop-opacity="1"></stop><stop offset="100%" stop-color="#FFFF00" stop-opacity="1"></stop></linearGradient><linearGradient id="linear1" gradientUnits="objectBoundingBox" x1="0%" y1="50%" x2="100%" y2="50%" spreadMethod="pad"><stop offset="0%" stop-color="#FFFF00" stop-opacity="1"></stop><stop offset="100%" stop-color="#FF8000" stop-opacity="1"></stop></linearGradient><linearGradient id="linearImport" gradientUnits="objectBoundingBox" x1="0%" y1="50%" x2="100%" y2="50%" spreadMethod="pad"><stop offset="0%" stop-color="#FFFFFF" stop-opacity="0.1"></stop><stop offset="100%" stop-color="#000000" stop-opacity="0.1"></stop></linearGradient><radialGradient id="radial0" gradientUnits="objectBoundingBox" r="0.5" cx="0.5" fx="0.5" cy="0.5" fy="0.5" spreadMethod="pad"><stop offset="0%" stop-color="#FF8000" stop-opacity="1"></stop><stop offset="100%" stop-color="#FFFF00" stop-opacity="1"></stop></radialGradient><radialGradient id="radial1" gradientUnits="objectBoundingBox" r="0.5" cx="0.5" fx="0.5" cy="0.5" fy="0.5" spreadMethod="pad"><stop offset="0%" stop-color="#FFFF00" stop-opacity="1"></stop><stop offset="100%" stop-color="#FF8000" stop-opacity="1"></stop></radialGradient><radialGradient id="radialImport" gradientUnits="objectBoundingBox" r="0.5" cx="0.5" fx="0.5" cy="0.5" fy="0.5" spreadMethod="pad"><stop offset="0%" stop-color="#FFFFFF" stop-opacity="0.1"></stop><stop offset="100%" stop-color="#000000" stop-opacity="0.1"></stop></radialGradient></defs><rect id="pageExport" x="0" y="0" width="18" height="18" fill="none" fill-opacity="0" stroke="none" stroke-width="0"></rect><g id="objectsExport" visibility="visible"><path id="path0" d="M3.345 1.853 C2.787 1.853 1.853 2.867 1.853 3.425 C1.853 3.425 2.013 4.895 2.013 4.895 C2.013 5.453 2.787 5.667 3.345 5.667 C3.345 5.667 4.655 5.667 4.655 5.667 C5.213 5.667 5.667 5.213 5.667 4.655 C5.667 4.655 5.667 3.345 5.667 3.345 C5.667 2.787 5.613 1.973 5.055 1.973 C5.055 1.973 3.345 1.733 3.345 1.853 Z M3.345 1.5 L4.655 1.5 C5.674 1.5 6.5 2.326 6.5 3.345 C6.5 3.345 6.5 4.655 6.5 4.655 C6.5 5.674 5.674 6.5 4.655 6.5 C4.655 6.5 3.345 6.5 3.345 6.5 C2.326 6.5 1.5 5.674 1.5 4.655 C1.5 4.655 1.5 3.345 1.5 3.345 C1.5 2.326 2.326 1.5 3.345 1.5 Z M3.345 11.5 L4.655 11.5 C5.674 11.5 6.5 12.326 6.5 13.345 C6.5 13.345 6.5 14.655 6.5 14.655 C6.5 15.674 5.674 16.5 4.655 16.5 C4.655 16.5 3.345 16.5 3.345 16.5 C2.326 16.5 1.5 15.674 1.5 14.655 C1.5 14.655 1.5 13.345 1.5 13.345 C1.5 12.326 2.326 11.5 3.345 11.5 Z M3.345 12.333 C2.787 12.333 2.333 12.787 2.333 13.345 C2.333 13.345 2.333 14.655 2.333 14.655 C2.333 15.213 2.787 15.667 3.345 15.667 C3.345 15.667 4.655 15.667 4.655 15.667 C5.213 15.667 5.667 15.213 5.667 14.655 C5.667 14.655 5.667 13.345 5.667 13.345 C5.667 12.787 5.213 12.333 4.655 12.333 C4.655 12.333 3.345 12.333 3.345 12.333 Z M13.345 1.5 L14.655 1.5 C15.674 1.5 16.5 2.326 16.5 3.345 C16.5 3.345 16.5 4.655 16.5 4.655 C16.5 5.674 15.674 6.5 14.655 6.5 C14.655 6.5 13.345 6.5 13.345 6.5 C12.326 6.5 11.5 5.674 11.5 4.655 C11.5 4.655 11.5 3.345 11.5 3.345 C11.5 2.326 12.326 1.5 13.345 1.5 Z M13.345 2.333 C12.787 2.333 12.333 2.787 12.333 3.345 C12.333 3.345 12.333 4.655 12.333 4.655 C12.333 5.213 12.787 5.667 13.345 5.667 C13.345 5.667 14.655 5.667 14.655 5.667 C15.213 5.667 15.667 5.213 15.667 4.655 C15.667 4.655 15.667 3.345 15.667 3.345 C15.667 2.787 15.213 2.333 14.655 2.333 C14.655 2.333 13.345 2.333 13.345 2.333 Z M9.833 15.667 L9.833 15.25 C9.833 15.02 10.02 14.833 10.25 14.833 C10.48 14.833 10.667 15.02 10.667 15.25 C10.667 15.25 10.667 15.667 10.667 15.667 C10.667 15.667 11.083 15.667 11.083 15.667 C11.313 15.667 11.5 15.853 11.5 16.083 C11.5 16.313 11.313 16.5 11.083 16.5 C11.083 16.5 9.417 16.5 9.417 16.5 C9.187 16.5 9 16.313 9 16.083 C9 15.853 9.187 15.667 9.417 15.667 C9.417 15.667 9.833 15.667 9.833 15.667 Z M9.833 8.167 L10.667 8.167 C10.667 7.52 10.853 7.333 11.083 7.333 C11.313 7.333 11.5 7.52 11.5 7.75 C11.5 7.75 11.5 8.583 11.5 8.583 C11.5 8.813 11.313 9 11.083 9 C11.083 9 7.023 9 7.023 9 C6.793 9 6.527 8.773 6.527 8.543 C6.527 8.313 6.793 8.167 7.023 8.167 C7.023 8.167 9 8.167 9 8.167 C9 8.167 9 7.333 9 7.333 C9 7.333 8.583 7.333 8.583 7.333 C8.353 7.333 8.167 7.147 8.167 6.917 C8.167 6.687 8.353 6.5 8.583 6.5 C8.583 6.5 9.417 6.5 9.417 6.5 C9.647 6.5 9.833 6.687 9.833 6.917 C9.833 6.917 9.833 8.167 9.833 8.167 C9.833 8.167 9.833 8.167 9.833 8.167 Z M14.833 9 L14.833 9.417 C14.833 9.647 14.647 9.833 14.417 9.833 C14.187 9.833 14 9.647 14 9.417 C14 9.417 14 7.75 14 7.75 C14 7.52 14.187 7.333 14.417 7.333 C14.647 7.333 14.833 7.52 14.833 7.75 C14.833 7.75 14.833 8.167 14.833 8.167 C14.833 8.167 15.667 8.167 15.667 8.167 C15.667 8.167 15.667 7.75 15.667 7.75 C15.667 7.52 15.853 7.333 16.083 7.333 C16.313 7.333 16.5 7.52 16.5 7.75 C16.5 7.75 16.5 8.583 16.5 8.583 C16.5 8.813 16.313 9 16.083 9 C16.083 9 14.833 9 14.833 9 Z M9.833 10.667 L6.103 10.667 C5.873 10.667 5.647 10.48 5.647 10.25 C5.647 10.02 5.873 9.833 6.103 9.833 C6.103 9.833 10.25 9.833 10.25 9.833 C10.48 9.833 10.667 10.02 10.667 10.25 C10.667 10.25 10.667 11.917 10.667 11.917 C10.667 12.147 10.48 12.333 10.25 12.333 C10.25 12.333 7.75 12.333 7.75 12.333 C7.52 12.333 7.333 12.147 7.333 11.917 C7.333 11.687 7.52 11.5 7.75 11.5 C7.75 11.5 9.833 11.5 9.833 11.5 C9.833 11.5 9.833 10.667 9.833 10.667 C9.833 10.667 9.833 10.667 9.833 10.667 Z M5.063 6.007 L5.217 5.807 C5.447 5.807 5.113 5.553 5.113 5.783 C5.113 5.783 5.233 5.457 5.233 5.457 C5.233 5.687 5.127 6.313 4.897 6.313 C4.897 6.313 5.063 6.473 5.063 6.473 C4.833 6.473 5.007 6.807 5.007 6.577 C5.007 6.577 5.247 5.783 5.247 5.783 C5.247 5.553 4.833 6.007 5.063 6.007 Z M3.583 13.167 L4.417 13.167 C4.647 13.167 4.833 13.353 4.833 13.583 C4.833 13.583 4.833 14.417 4.833 14.417 C4.833 14.647 4.647 14.833 4.417 14.833 C4.417 14.833 3.583 14.833 3.583 14.833 C3.353 14.833 3.167 14.647 3.167 14.417 C3.167 14.417 3.167 13.583 3.167 13.583 C3.167 13.353 3.353 13.167 3.583 13.167 Z M13.583 3.167 L14.417 3.167 C14.647 3.167 14.833 3.353 14.833 3.583 C14.833 3.583 14.833 4.417 14.833 4.417 C14.833 4.647 14.647 4.833 14.417 4.833 C14.417 4.833 13.583 4.833 13.583 4.833 C13.353 4.833 13.167 4.647 13.167 4.417 C13.167 4.417 13.167 3.583 13.167 3.583 C13.167 3.353 13.353 3.167 13.583 3.167 Z M9.833 3.167 L9.833 2.333 L8.327 2.333 C8.327 2.333 8.58 2.32 8.35 2.32 C8.12 2.32 7.933 2.173 7.933 1.943 C7.933 1.943 7.933 1.917 7.933 1.917 C7.933 1.687 8.16 1.5 8.39 1.5 C8.39 1.5 10.25 1.5 10.25 1.5 C10.48 1.5 10.667 1.687 10.667 1.917 C10.667 1.917 10.667 3.583 10.667 3.583 C10.667 3.813 10.48 4 10.25 4 C10.25 4 9.417 4 9.417 4 C9.187 4 9 3.813 9 3.583 C9 3.353 9.187 3.167 9.417 3.167 C9.417 3.167 9.833 3.167 9.833 3.167 Z M8.51 5.667 C8.28 5.667 8.093 5.48 8.093 5.25 C8.093 5.02 8.28 4.833 8.51 4.833 C8.51 4.833 10.25 4.833 10.25 4.833 C10.48 4.833 10.667 5.02 10.667 5.25 C10.667 5.48 10.48 5.667 10.25 5.667 C10.25 5.667 8.51 5.667 8.51 5.667 Z M8.167 14 L8.167 16.083 C8.167 16.313 7.98 16.5 7.75 16.5 C7.52 16.5 7.333 16.313 7.333 16.083 C7.333 16.083 7.333 13.583 7.333 13.583 C7.333 13.353 7.52 13.167 7.75 13.167 C7.75 13.167 10.25 13.167 10.25 13.167 C10.48 13.167 10.667 13.353 10.667 13.583 C10.667 13.813 10.48 14 10.25 14 C10.25 14 8.167 14 8.167 14 Z M3.54 6.88 L3.357 6.76 C3.347 6.8 4.013 7.147 4.013 7.377 C4.013 7.377 3.653 6.81 3.653 6.81 C3.653 7.04 2.107 6.187 1.877 6.187 C1.647 6.187 2.7 6.88 2.7 6.65 C2.7 6.65 3.54 7.153 3.54 7.153 C3.54 7.153 4.083 7.513 4.083 7.513 C3.853 7.513 3.347 7.047 3.347 6.817 C3.347 6.817 3.507 6.51 3.507 6.51 C3.507 6.28 3.733 7.253 3.963 7.253 C3.963 7.253 4.437 6.813 4.437 6.813 C4.667 6.813 3.613 6.56 3.613 6.79 C3.613 7.02 4.187 7.087 3.957 7.087 C3.957 7.087 2.98 6.727 2.98 6.727 C2.98 6.727 3.54 6.88 3.54 6.88 Z M4 8.167 L3.583 8.167 C3.353 8.167 3.167 7.98 3.167 7.75 C3.167 7.52 3.353 7.333 3.583 7.333 C3.583 7.333 4.417 7.333 4.417 7.333 C4.647 7.333 4.833 7.52 4.833 7.75 C4.833 7.75 4.433 8.01 4.433 8.01 C4.433 8.24 4.207 7.587 3.977 7.587 C3.907 7.427 3.68 8.28 3.68 8.05 C3.68 8.05 4 8.167 4 8.167 Z M12.333 7.75 C12.333 7.52 12.52 7.333 12.75 7.333 C12.98 7.333 13.167 7.52 13.167 7.75 C13.167 7.75 13.167 9.417 13.167 9.417 C13.167 9.647 12.98 9.833 12.75 9.833 C12.52 9.833 12.333 9.647 12.333 9.417 C12.333 9.417 12.333 7.75 12.333 7.75 Z M15.667 10.667 L15.667 10.25 C15.667 10.02 15.853 9.833 16.083 9.833 C16.313 9.833 16.5 10.02 16.5 10.25 C16.5 10.25 16.5 11.083 16.5 11.083 C16.5 11.313 16.313 11.5 16.083 11.5 C16.083 11.5 13.583 11.5 13.583 11.5 C13.353 11.5 13.167 11.313 13.167 11.083 C13.167 10.853 13.353 10.667 13.583 10.667 C13.583 10.667 15.667 10.667 15.667 10.667 Z M12.333 12.333 L14.417 12.333 C14.647 12.333 14.833 12.52 14.833 12.75 C14.833 12.98 14.647 13.167 14.417 13.167 C14.417 13.167 11.917 13.167 11.917 13.167 C11.687 13.167 11.5 12.98 11.5 12.75 C11.5 12.75 11.5 11.083 11.5 11.083 C11.5 10.853 11.687 10.667 11.917 10.667 C12.147 10.667 12.333 10.853 12.333 11.083 C12.333 11.083 12.333 12.333 12.333 12.333 Z M15.667 15.667 L15.667 12.75 C15.667 12.52 15.853 12.333 16.083 12.333 C16.313 12.333 16.5 12.52 16.5 12.75 C16.5 12.75 16.5 16.083 16.5 16.083 C16.5 16.313 16.313 16.5 16.083 16.5 C16.083 16.5 12.75 16.5 12.75 16.5 C12.52 16.5 12.333 16.313 12.333 16.083 C12.333 15.853 12.52 15.667 12.75 15.667 C12.75 15.667 15.667 15.667 15.667 15.667 Z M11.917 14.833 C11.687 14.833 11.5 14.647 11.5 14.417 C11.5 14.187 11.687 14 11.917 14 C11.917 14 14.417 14 14.417 14 C14.647 14 14.833 14.187 14.833 14.417 C14.833 14.647 14.647 14.833 14.417 14.833 C14.417 14.833 11.917 14.833 11.917 14.833 Z M2.333 9.833 L2.75 9.833 C2.98 9.833 3.167 10.02 3.167 10.25 C3.167 10.48 2.98 10.667 2.75 10.667 C2.75 10.667 1.917 10.667 1.917 10.667 C1.687 10.667 1.5 10.48 1.5 10.25 C1.5 10.25 1.5 9.03 1.5 9.03 C1.5 8.8 1.647 8.613 1.877 8.613 C2.107 8.613 2.293 8.8 2.293 9.03 C2.293 9.03 2.333 9.833 2.333 9.833 Z " data-centerx="9" data-centery="9" stroke="none" stroke-width="0" data-sw="0" stroke-opacity="1" stroke-linecap="round" stroke-linejoin="round" fill="#000000" fill-opacity="1" fill-rule="evenodd" filter="none" visibility="visible" stroke-dasharray="none" marker-start="none" marker-end="none" data-name="curve" data-title="curve" deg="0" data-grad="0" data-group="0" data-edit="1"></path><path id="path1" d="M3.728 9.536 C1.004 5.586 0.498 5.18 0.498 3.729 C0.498 1.74 2.109 0.129 4.098 0.129 C6.086 0.129 7.698 1.74 7.698 3.729 C7.698 5.18 7.191 5.586 4.467 9.536 C4.289 9.794 3.906 9.794 3.728 9.536 Z M4.098 5.229 C4.926 5.229 5.598 4.557 5.598 3.729 C5.598 2.9 4.926 2.229 4.098 2.229 C3.269 2.229 2.598 2.9 2.598 3.729 C2.598 4.557 3.269 5.229 4.098 5.229 Z " data-centerx="4.097" data-centery="4.931" stroke="none" stroke-width="0" data-sw="0" stroke-opacity="1" stroke-linecap="round" stroke-linejoin="round" fill="#000000" fill-opacity="1" fill-rule="evenodd" filter="none" visibility="visible" stroke-dasharray="none" marker-start="none" marker-end="none" data-name="curve" data-title="curve" deg="0" data-grad="0" data-group="0" data-edit="1"></path></g><g id="settings" visibility="hidden" data-dn0="primalDraw" data-dn1="#FAFAFA" data-dn2="#D2D2D2" data-dn3="18" data-dn4="#000000" data-dn5="#000000" data-dn6="1" data-dn7="1" data-dn8="2" data-dn9="round" data-dn10="round" data-dn11="none" data-dn12="none" data-dn13="none" data-dn14="evenodd" data-dn15="10" data-dn16="1" data-dn17="18" data-dn18="18" data-dn19="10" data-dn20="0" data-dn21="1" data-dn22="1" data-dn23="2" data-dn24="path0,path1" data-dn25="2" data-dn26="url(#linear0)" data-dn27="url(#linear1)" data-dn28="url(#radial0)" data-dn29="url(#radial1)" data-dn30="#FF8000" data-dn31="#FFFF00" data-dn32="#000000" data-dn33="1" data-dn34="1" data-dn35="10" data-dn36="" data-dn37="0" data-dn38="64"></g></svg>