<svg id="exportSVG" visibility="visible" xmlns="http://www.w3.org/2000/svg" xmlns:xlink="http://www.w3.org/1999/xlink" version="1.1" data-info="draw.ninja" data-name="checkin" viewBox="0 0 18 18" width="18" height="18" style="position: fixed; top: 0px; left: 0px;"><defs id="defsExport"><filter id="filter0"><feGaussianBlur stdDeviation="0"></feGaussianBlur></filter><pattern id="patternImage" patternUnits="userSpaceOnUse" x="0" y="0" width="1" height="1" data-x="0" data-y="0" data-width="1" data-height="1" data-multx="1" data-multy="1" patternTransform="matrix(1,0,0,1,0,0)" data-transs="0" data-transf="0" data-source="patternImage" data-draw="1" fill="#B3B3B3" fill-opacity="1"></pattern><pattern id="pattern0" patternUnits="userSpaceOnUse" x="0" y="0" width="10" height="10" data-x="0" data-y="0" data-width="10" data-height="10" data-multx="1" data-multy="1" stroke="none" patternTransform="matrix(1,0,0,1,0,0)" data-transs="0" data-transf="0" data-source="Pattern 0" data-draw="1" fill="#B3B3B3" fill-opacity="1"><path transform="matrix(1,0,0,1,0,0)" d="M0 0 L5 0 L5 5 L0 5 L0 0 Z"></path></pattern><pattern id="pattern1" patternUnits="userSpaceOnUse" x="0" y="0" width="10" height="10" data-x="0" data-y="0" data-width="10" data-height="10" data-multx="1" data-multy="1" stroke="none" patternTransform="matrix(1,0,0,1,0,0)" data-transs="0" data-transf="0" data-source="Pattern 1" data-draw="1" fill="#B3B3B3" fill-opacity="1"><path transform="matrix(1,0,0,1,0,0)" d="M0 5 L5 0 L10 5 L5 10 L0 5 Z"></path></pattern><pattern id="pattern2" patternUnits="userSpaceOnUse" x="0" y="0" width="10" height="10" data-x="0" data-y="0" data-width="10" data-height="10" data-multx="1" data-multy="1" stroke="none" patternTransform="matrix(1,0,0,1,0,0)" data-transs="0" data-transf="0" data-source="Pattern 2" data-draw="1" fill="#B3B3B3" fill-opacity="1"><path transform="matrix(1,0,0,1,0,0)" d="M0 9 L5 1 L10 9 L0 9 Z"></path></pattern><pattern id="pattern3" patternUnits="userSpaceOnUse" x="0" y="0" width="10" height="10" data-x="0" data-y="0" data-width="10" data-height="10" data-multx="1" data-multy="1" stroke="none" patternTransform="matrix(1,0,0,1,0,0)" data-transs="0" data-transf="0" data-source="Pattern 3" data-draw="1" fill="#B3B3B3" fill-opacity="1"><path transform="matrix(1,0,0,1,0,0)" d="M0 5 C0 2.25 2.25 0 5 0 C7.75 0 10 2.25 10 5 C10 7.75 7.75 10 5 10 C2.25 10 0 7.75 0 5 Z"></path></pattern><pattern id="pattern4" patternUnits="userSpaceOnUse" x="0" y="0" width="10" height="10" data-x="0" data-y="0" data-width="10" data-height="10" data-multx="1" data-multy="1" stroke="none" patternTransform="matrix(1,0,0,1,0,0)" data-transs="0" data-transf="0" data-source="Pattern 4" data-draw="1" fill="#B3B3B3" fill-opacity="1"><path transform="matrix(1,0,0,1,0,0)" d="M0 5 L4 4 L5 0 L6 4 L10 5 L6 6 L5 10 L4 6 L0 5 Z"></path></pattern><pattern id="pattern5" patternUnits="userSpaceOnUse" x="0" y="0" width="10" height="10" data-x="0" data-y="0" data-width="10" data-height="10" data-multx="1" data-multy="1" stroke="none" patternTransform="matrix(1,0,0,1,0,0)" data-transs="0" data-transf="0" data-source="Pattern 5" data-draw="1" fill="#B3B3B3" fill-opacity="1"><path transform="matrix(1,0,0,1,0,0)" d="M5 10 C-5 2.75 3 -1.75 5 1 C7 -1.75 15 2.75 5 10 Z"></path></pattern><pattern id="pattern6" patternUnits="userSpaceOnUse" x="0" y="0" width="10" height="10" data-x="0" data-y="0" data-width="10" data-height="10" data-multx="1" data-multy="1" stroke="none" patternTransform="matrix(1,0,0,1,0,0)" data-transs="0" data-transf="0" data-source="Pattern 6" data-draw="1" fill="#B3B3B3" fill-opacity="1"><path transform="matrix(1,0,0,1,0,0)" d="M3 0 L7 0 L7 10 L3 10 L3 0 Z"></path></pattern><pattern id="pattern7" patternUnits="userSpaceOnUse" x="0" y="0" width="10" height="10" data-x="0" data-y="0" data-width="10" data-height="10" data-multx="1" data-multy="1" stroke="none" patternTransform="matrix(1,0,0,1,0,0)" data-transs="0" data-transf="0" data-source="Pattern 7" data-draw="1" fill="#B3B3B3" fill-opacity="1"><path transform="matrix(1,0,0,1,0,0)" d="M10 3 L10 7 L0 7 L0 3 L10 3 Z"></path></pattern><pattern id="pattern8" patternUnits="userSpaceOnUse" x="0" y="0" width="10" height="10" data-x="0" data-y="0" data-width="10" data-height="10" data-multx="1" data-multy="1" stroke="none" patternTransform="matrix(1,0,0,1,0,0)" data-transs="0" data-transf="0" data-source="Pattern 8" data-draw="1" fill="#B3B3B3" fill-opacity="1"><path transform="matrix(1,0,0,1,0,0)" d="M0 10 L3 3 L10 0 L7 7 L0 10 Z"></path></pattern><pattern id="pattern9" patternUnits="userSpaceOnUse" x="0" y="0" width="10" height="10" data-x="0" data-y="0" data-width="10" data-height="10" data-multx="1" data-multy="1" stroke="none" patternTransform="matrix(1,0,0,1,0,0)" data-transs="0" data-transf="0" data-source="Pattern 9" data-draw="1" fill="#B3B3B3" fill-opacity="1"><path transform="matrix(1,0,0,1,0,0)" d="M0 4 L10 4 L10 6 L0 6 L0 4 Z M4 10 L4 0 L6 0 L6 10 L4 10 Z"></path></pattern><linearGradient id="linearSystem" gradientUnits="objectBoundingBox" x1="0%" y1="50%" x2="100%" y2="50%" spreadMethod="pad"><stop offset="50%" stop-color="#D0D0D0" stop-opacity="1"></stop><stop offset="100%" stop-color="transparent" stop-opacity="1"></stop></linearGradient><linearGradient id="linearSystem1" gradientUnits="objectBoundingBox" x1="0%" y1="50%" x2="100%" y2="50%" spreadMethod="pad"><stop offset="30%" stop-color="#D0D0D0" stop-opacity="1"></stop><stop offset="100%" stop-color="transparent" stop-opacity="1"></stop></linearGradient><linearGradient id="linearSystem2" gradientUnits="objectBoundingBox" x1="0%" y1="50%" x2="50%" y2="50%" spreadMethod="repeat"><stop offset="30%" stop-color="#D0D0D0" stop-opacity="1"></stop><stop offset="100%" stop-color="transparent" stop-opacity="1"></stop></linearGradient><linearGradient id="linearSystem3" gradientUnits="objectBoundingBox" x1="0%" y1="50%" x2="50%" y2="50%" spreadMethod="reflect"><stop offset="30%" stop-color="#D0D0D0" stop-opacity="1"></stop><stop offset="100%" stop-color="transparent" stop-opacity="1"></stop></linearGradient><radialGradient id="radialSystem" gradientUnits="objectBoundingBox" r="0.5" cx="0.5" fx="0.5" cy="0.5" fy="0.5" spreadMethod="pad"><stop offset="50%" stop-color="#D0D0D0" stop-opacity="1"></stop><stop offset="100%" stop-color="transparent" stop-opacity="1"></stop></radialGradient><pattern id="patternSystem" patternUnits="userSpaceOnUse" x="0" y="0" width="6" height="8"><path stroke="#D0D0D0" stroke-width="5" fill="none" d="M0 0 L0 10"></path></pattern><linearGradient id="linear0" gradientUnits="objectBoundingBox" x1="0%" y1="50%" x2="100%" y2="50%" spreadMethod="pad"><stop offset="0%" stop-color="#FF8000" stop-opacity="1"></stop><stop offset="100%" stop-color="#FFFF00" stop-opacity="1"></stop></linearGradient><linearGradient id="linear1" gradientUnits="objectBoundingBox" x1="0%" y1="50%" x2="100%" y2="50%" spreadMethod="pad"><stop offset="0%" stop-color="#FFFF00" stop-opacity="1"></stop><stop offset="100%" stop-color="#FF8000" stop-opacity="1"></stop></linearGradient><linearGradient id="linearImport" gradientUnits="objectBoundingBox" x1="0%" y1="50%" x2="100%" y2="50%" spreadMethod="pad"><stop offset="0%" stop-color="#FFFFFF" stop-opacity="0.1"></stop><stop offset="100%" stop-color="#000000" stop-opacity="0.1"></stop></linearGradient><radialGradient id="radial0" gradientUnits="objectBoundingBox" r="0.5" cx="0.5" fx="0.5" cy="0.5" fy="0.5" spreadMethod="pad"><stop offset="0%" stop-color="#FF8000" stop-opacity="1"></stop><stop offset="100%" stop-color="#FFFF00" stop-opacity="1"></stop></radialGradient><radialGradient id="radial1" gradientUnits="objectBoundingBox" r="0.5" cx="0.5" fx="0.5" cy="0.5" fy="0.5" spreadMethod="pad"><stop offset="0%" stop-color="#FFFF00" stop-opacity="1"></stop><stop offset="100%" stop-color="#FF8000" stop-opacity="1"></stop></radialGradient><radialGradient id="radialImport" gradientUnits="objectBoundingBox" r="0.5" cx="0.5" fx="0.5" cy="0.5" fy="0.5" spreadMethod="pad"><stop offset="0%" stop-color="#FFFFFF" stop-opacity="0.1"></stop><stop offset="100%" stop-color="#000000" stop-opacity="0.1"></stop></radialGradient><linearGradient id="linear2" gradientUnits="objectBoundingBox" x1="0%" y1="50%" x2="100%" y2="50%" spreadMethod="pad"><stop offset="0%" stop-color="#FFFF00" stop-opacity="1"></stop><stop offset="100%" stop-color="#FF8000" stop-opacity="1"></stop></linearGradient><radialGradient id="radial3" gradientUnits="objectBoundingBox" r="0.5" cx="0.5" fx="0.5" cy="0.5" fy="0.5" spreadMethod="pad"><stop offset="0%" stop-color="#FFFF00" stop-opacity="1"></stop><stop offset="100%" stop-color="#FF8000" stop-opacity="1"></stop></radialGradient><linearGradient id="linear4" gradientUnits="objectBoundingBox" x1="0%" y1="50%" x2="100%" y2="50%" spreadMethod="pad"><stop offset="0%" stop-color="#FFFF00" stop-opacity="1"></stop><stop offset="100%" stop-color="#FF8000" stop-opacity="1"></stop></linearGradient><radialGradient id="radial7" gradientUnits="objectBoundingBox" r="0.5" cx="0.5" fx="0.5" cy="0.5" fy="0.5" spreadMethod="pad"><stop offset="0%" stop-color="#FFFF00" stop-opacity="1"></stop><stop offset="100%" stop-color="#FF8000" stop-opacity="1"></stop></radialGradient></defs><rect id="pageExport" x="0" y="0" width="18" height="18" fill="none" fill-opacity="0" stroke="none" stroke-width="0"></rect><g id="objectsExport" visibility="visible"><path id="path0" d="M10.385 9.844 C10.086 9.844 9.844 10.086 9.844 10.384 C9.844 10.384 9.844 11.083 9.844 11.083 C9.844 11.38 10.086 11.622 10.385 11.622 C10.385 11.622 11.083 11.622 11.083 11.622 C11.381 11.622 11.623 11.38 11.623 11.083 C11.623 11.083 11.623 10.384 11.623 10.384 C11.623 10.086 11.381 9.844 11.083 9.844 C11.083 9.844 10.385 9.844 10.385 9.844 Z M10.385 9.4 L11.083 9.4 C11.627 9.4 12.068 9.841 12.068 10.384 C12.068 10.384 12.068 11.083 12.068 11.083 C12.068 11.627 11.627 12.067 11.083 12.067 C11.083 12.067 10.385 12.067 10.385 12.067 C9.841 12.067 9.4 11.627 9.4 11.083 C9.4 11.083 9.4 10.384 9.4 10.384 C9.4 9.841 9.841 9.4 10.385 9.4 Z M10.385 14.733 L11.083 14.733 C11.627 14.733 12.068 15.173 12.068 15.717 C12.068 15.717 12.068 16.416 12.068 16.416 C12.068 16.959 11.627 17.4 11.083 17.4 C11.083 17.4 10.385 17.4 10.385 17.4 C9.841 17.4 9.4 16.959 9.4 16.416 C9.4 16.416 9.4 15.717 9.4 15.717 C9.4 15.173 9.841 14.733 10.385 14.733 Z M10.385 15.178 C10.086 15.178 9.844 15.42 9.844 15.717 C9.844 15.717 9.844 16.416 9.844 16.416 C9.844 16.714 10.086 16.956 10.385 16.956 C10.385 16.956 11.083 16.956 11.083 16.956 C11.381 16.956 11.623 16.714 11.623 16.416 C11.623 16.416 11.623 15.717 11.623 15.717 C11.623 15.42 11.381 15.178 11.083 15.178 C11.083 15.178 10.385 15.178 10.385 15.178 Z M15.717 9.4 L16.415 9.4 C16.959 9.4 17.4 9.841 17.4 10.384 C17.4 10.384 17.4 11.083 17.4 11.083 C17.4 11.627 16.959 12.067 16.415 12.067 C16.415 12.067 15.717 12.067 15.717 12.067 C15.173 12.067 14.732 11.627 14.732 11.083 C14.732 11.083 14.732 10.384 14.732 10.384 C14.732 9.841 15.173 9.4 15.717 9.4 Z M15.717 9.844 C15.419 9.844 15.177 10.086 15.177 10.384 C15.177 10.384 15.177 11.083 15.177 11.083 C15.177 11.38 15.419 11.622 15.717 11.622 C15.717 11.622 16.415 11.622 16.415 11.622 C16.714 11.622 16.956 11.38 16.956 11.083 C16.956 11.083 16.956 10.384 16.956 10.384 C16.956 10.086 16.714 9.844 16.415 9.844 C16.415 9.844 15.717 9.844 15.717 9.844 Z M13.844 16.956 L13.844 16.733 C13.844 16.611 13.945 16.511 14.068 16.511 C14.19 16.511 14.289 16.611 14.289 16.733 C14.289 16.733 14.289 16.956 14.289 16.956 C14.289 16.956 14.511 16.956 14.511 16.956 C14.634 16.956 14.732 17.055 14.732 17.178 C14.732 17.3 14.634 17.4 14.511 17.4 C14.511 17.4 13.623 17.4 13.623 17.4 C13.499 17.4 13.4 17.3 13.4 17.178 C13.4 17.055 13.499 16.956 13.623 16.956 C13.623 16.956 13.844 16.956 13.844 16.956 Z M13.844 12.956 L14.289 12.956 C14.289 12.611 14.389 12.511 14.511 12.511 C14.634 12.511 14.732 12.611 14.732 12.733 C14.732 12.733 14.732 13.178 14.732 13.178 C14.732 13.3 14.634 13.4 14.511 13.4 C14.511 13.4 13.177 13.4 13.177 13.4 C13.054 13.4 12.956 13.3 12.956 13.178 C12.956 13.055 13.054 12.956 13.177 12.956 C13.177 12.956 13.4 12.956 13.4 12.956 C13.4 12.956 13.4 12.511 13.4 12.511 C13.4 12.511 13.177 12.511 13.177 12.511 C13.054 12.511 12.956 12.412 12.956 12.289 C12.956 12.166 13.054 12.067 13.177 12.067 C13.177 12.067 13.623 12.067 13.623 12.067 C13.746 12.067 13.844 12.166 13.844 12.289 C13.844 12.289 13.844 12.956 13.844 12.956 C13.844 12.956 13.844 12.956 13.844 12.956 Z M16.511 13.4 L16.511 13.622 C16.511 13.745 16.411 13.844 16.289 13.844 C16.166 13.844 16.068 13.745 16.068 13.622 C16.068 13.622 16.068 12.733 16.068 12.733 C16.068 12.611 16.166 12.511 16.289 12.511 C16.411 12.511 16.511 12.611 16.511 12.733 C16.511 12.733 16.511 12.956 16.511 12.956 C16.511 12.956 16.956 12.956 16.956 12.956 C16.956 12.956 16.956 12.733 16.956 12.733 C16.956 12.611 17.054 12.511 17.177 12.511 C17.301 12.511 17.4 12.611 17.4 12.733 C17.4 12.733 17.4 13.178 17.4 13.178 C17.4 13.3 17.301 13.4 17.177 13.4 C17.177 13.4 16.511 13.4 16.511 13.4 Z M13.844 14.289 L13.177 14.289 C13.054 14.289 12.956 14.189 12.956 14.067 C12.956 13.944 13.054 13.844 13.177 13.844 C13.177 13.844 14.068 13.844 14.068 13.844 C14.19 13.844 14.289 13.944 14.289 14.067 C14.289 14.067 14.289 14.956 14.289 14.956 C14.289 15.078 14.19 15.178 14.068 15.178 C14.068 15.178 12.732 15.178 12.732 15.178 C12.61 15.178 12.511 15.078 12.511 14.956 C12.511 14.833 12.61 14.733 12.732 14.733 C12.732 14.733 13.844 14.733 13.844 14.733 C13.844 14.733 13.844 14.289 13.844 14.289 C13.844 14.289 13.844 14.289 13.844 14.289 Z M10.511 10.289 L10.956 10.289 C11.078 10.289 11.177 10.388 11.177 10.511 C11.177 10.511 11.177 10.956 11.177 10.956 C11.177 11.078 11.078 11.178 10.956 11.178 C10.956 11.178 10.511 11.178 10.511 11.178 C10.389 11.178 10.289 11.078 10.289 10.956 C10.289 10.956 10.289 10.511 10.289 10.511 C10.289 10.388 10.389 10.289 10.511 10.289 Z M10.511 15.622 L10.956 15.622 C11.078 15.622 11.177 15.722 11.177 15.844 C11.177 15.844 11.177 16.289 11.177 16.289 C11.177 16.412 11.078 16.511 10.956 16.511 C10.956 16.511 10.511 16.511 10.511 16.511 C10.389 16.511 10.289 16.412 10.289 16.289 C10.289 16.289 10.289 15.844 10.289 15.844 C10.289 15.722 10.389 15.622 10.511 15.622 Z M15.844 10.289 L16.289 10.289 C16.411 10.289 16.511 10.388 16.511 10.511 C16.511 10.511 16.511 10.956 16.511 10.956 C16.511 11.078 16.411 11.178 16.289 11.178 C16.289 11.178 15.844 11.178 15.844 11.178 C15.722 11.178 15.623 11.078 15.623 10.956 C15.623 10.956 15.623 10.511 15.623 10.511 C15.623 10.388 15.722 10.289 15.844 10.289 Z M13.844 10.289 L13.844 9.844 L12.956 9.844 C12.956 10.634 12.855 10.733 12.732 10.733 C12.61 10.733 12.511 10.634 12.511 10.511 C12.511 10.511 12.511 9.622 12.511 9.622 C12.511 9.5 12.61 9.4 12.732 9.4 C12.732 9.4 14.068 9.4 14.068 9.4 C14.19 9.4 14.289 9.5 14.289 9.622 C14.289 9.622 14.289 10.511 14.289 10.511 C14.289 10.634 14.19 10.733 14.068 10.733 C14.068 10.733 13.623 10.733 13.623 10.733 C13.499 10.733 13.4 10.634 13.4 10.511 C13.4 10.388 13.499 10.289 13.623 10.289 C13.623 10.289 13.844 10.289 13.844 10.289 Z M12.732 11.622 C12.61 11.622 12.511 11.523 12.511 11.4 C12.511 11.277 12.61 11.178 12.732 11.178 C12.732 11.178 14.068 11.178 14.068 11.178 C14.19 11.178 14.289 11.277 14.289 11.4 C14.289 11.523 14.19 11.622 14.068 11.622 C14.068 11.622 12.732 11.622 12.732 11.622 Z M12.956 16.067 L12.956 17.178 C12.956 17.3 12.855 17.4 12.732 17.4 C12.61 17.4 12.511 17.3 12.511 17.178 C12.511 17.178 12.511 15.844 12.511 15.844 C12.511 15.722 12.61 15.622 12.732 15.622 C12.732 15.622 14.068 15.622 14.068 15.622 C14.19 15.622 14.289 15.722 14.289 15.844 C14.289 15.967 14.19 16.067 14.068 16.067 C14.068 16.067 12.956 16.067 12.956 16.067 Z M12.068 13.4 L12.289 13.4 C12.411 13.4 12.511 13.5 12.511 13.622 C12.511 13.622 12.511 14.067 12.511 14.067 C12.511 14.189 12.411 14.289 12.289 14.289 C12.166 14.289 12.068 14.189 12.068 14.067 C12.068 14.067 12.068 13.844 12.068 13.844 C12.068 13.844 11.844 13.844 11.844 13.844 C11.722 13.844 11.623 13.745 11.623 13.622 C11.623 13.622 11.623 12.733 11.623 12.733 C11.623 12.611 11.722 12.511 11.844 12.511 C11.844 12.511 12.289 12.511 12.289 12.511 C12.411 12.511 12.511 12.611 12.511 12.733 C12.511 12.856 12.411 12.956 12.289 12.956 C12.289 12.956 12.068 12.956 12.068 12.956 C12.068 12.956 12.068 13.4 12.068 13.4 Z M10.732 12.956 L10.511 12.956 C10.389 12.956 10.289 12.856 10.289 12.733 C10.289 12.611 10.389 12.511 10.511 12.511 C10.511 12.511 10.956 12.511 10.956 12.511 C11.078 12.511 11.177 12.611 11.177 12.733 C11.177 12.733 11.177 14.067 11.177 14.067 C11.177 14.189 11.078 14.289 10.956 14.289 C10.833 14.289 10.732 14.189 10.732 14.067 C10.732 14.067 10.732 12.956 10.732 12.956 Z M15.177 12.733 C15.177 12.611 15.277 12.511 15.4 12.511 C15.523 12.511 15.623 12.611 15.623 12.733 C15.623 12.733 15.623 13.622 15.623 13.622 C15.623 13.745 15.523 13.844 15.4 13.844 C15.277 13.844 15.177 13.745 15.177 13.622 C15.177 13.622 15.177 12.733 15.177 12.733 Z M16.956 14.289 L16.956 14.067 C16.956 13.944 17.054 13.844 17.177 13.844 C17.301 13.844 17.4 13.944 17.4 14.067 C17.4 14.067 17.4 14.511 17.4 14.511 C17.4 14.634 17.301 14.733 17.177 14.733 C17.177 14.733 15.844 14.733 15.844 14.733 C15.722 14.733 15.623 14.634 15.623 14.511 C15.623 14.388 15.722 14.289 15.844 14.289 C15.844 14.289 16.956 14.289 16.956 14.289 Z M15.177 15.178 L16.289 15.178 C16.411 15.178 16.511 15.277 16.511 15.4 C16.511 15.523 16.411 15.622 16.289 15.622 C16.289 15.622 14.956 15.622 14.956 15.622 C14.833 15.622 14.732 15.523 14.732 15.4 C14.732 15.4 14.732 14.511 14.732 14.511 C14.732 14.388 14.833 14.289 14.956 14.289 C15.078 14.289 15.177 14.388 15.177 14.511 C15.177 14.511 15.177 15.178 15.177 15.178 Z M16.956 16.956 L16.956 15.4 C16.956 15.277 17.054 15.178 17.177 15.178 C17.301 15.178 17.4 15.277 17.4 15.4 C17.4 15.4 17.4 17.178 17.4 17.178 C17.4 17.3 17.301 17.4 17.177 17.4 C17.177 17.4 15.4 17.4 15.4 17.4 C15.277 17.4 15.177 17.3 15.177 17.178 C15.177 17.055 15.277 16.956 15.4 16.956 C15.4 16.956 16.956 16.956 16.956 16.956 Z M14.956 16.511 C14.833 16.511 14.732 16.412 14.732 16.289 C14.732 16.166 14.833 16.067 14.956 16.067 C14.956 16.067 16.289 16.067 16.289 16.067 C16.411 16.067 16.511 16.166 16.511 16.289 C16.511 16.412 16.411 16.511 16.289 16.511 C16.289 16.511 14.956 16.511 14.956 16.511 Z M9.844 13.844 L10.068 13.844 C10.19 13.844 10.289 13.944 10.289 14.067 C10.289 14.189 10.19 14.289 10.068 14.289 C10.068 14.289 9.623 14.289 9.623 14.289 C9.499 14.289 9.4 14.189 9.4 14.067 C9.4 14.067 9.4 12.733 9.4 12.733 C9.4 12.611 9.499 12.511 9.623 12.511 C9.746 12.511 9.844 12.611 9.844 12.733 C9.844 12.733 9.844 13.844 9.844 13.844 Z " data-centerx="13.4" data-centery="13.4" stroke="none" stroke-width="0" data-sw="0" stroke-opacity="1" stroke-linecap="round" stroke-linejoin="round" fill="#000000" fill-opacity="1" fill-rule="evenodd" filter="none" visibility="visible" stroke-dasharray="none" marker-start="none" marker-end="none" data-name="curve" data-title="curve" deg="0" data-grad="0" data-group="0" data-edit="1"></path><path id="path13" visibility="visible" stroke="#FFFFFF" stroke-width="0.7" stroke-opacity="1" stroke-linecap="round" stroke-linejoin="round" stroke-dasharray="none" marker-start="none" marker-end="none" fill="#FFFFFF" fill-rule="evenodd" fill-opacity="1" data-name="curve" data-title="curve" deg="356" data-sw="0.7" data-grad="0" data-group="0" data-edit="1" filter="none" d="M14.516 3.55 C14.516 3.55 9.782 8.276 7.415 10.638 C5.048 13.001 3.55 14.52 3.55 14.52 " data-centerx="9.033" data-centery="9.035"></path><path id="path15" d="M4.792 9.806 C2.522 6.515 2.1 6.177 2.1 4.967 C2.1 3.31 3.444 1.967 5.1 1.967 C6.757 1.967 8.1 3.31 8.1 4.967 C8.1 6.177 7.679 6.515 5.409 9.806 C5.26 10.021 4.941 10.021 4.792 9.806 Z M5.1 6.217 C5.791 6.217 6.35 5.658 6.35 4.967 C6.35 4.277 5.791 3.717 5.1 3.717 C4.41 3.717 3.85 4.277 3.85 4.967 C3.85 5.658 4.41 6.217 5.1 6.217 Z " data-centerx="5.1" data-centery="5.967" stroke="#000000" stroke-width="0" data-sw="0" stroke-opacity="1" stroke-linecap="round" stroke-linejoin="round" fill="#000000" fill-opacity="1" fill-rule="evenodd" filter="none" visibility="visible" stroke-dasharray="none" marker-start="none" marker-end="none" data-name="curve" data-title="curve" deg="0" data-grad="0" data-group="0" data-edit="1"></path></g><g id="settings" visibility="hidden" data-dn0="primalDraw" data-dn1="#FAFAFA" data-dn2="#D2D2D2" data-dn3="18" data-dn4="#000000" data-dn5="#000000" data-dn6="1" data-dn7="1" data-dn8="0.7" data-dn9="round" data-dn10="round" data-dn11="none" data-dn12="none" data-dn13="none" data-dn14="evenodd" data-dn15="10" data-dn16="1" data-dn17="18" data-dn18="18" data-dn19="10" data-dn20="0" data-dn21="1" data-dn22="1" data-dn23="16" data-dn24="path0,path13,path15" data-dn25="8" data-dn26="url(#linear0)" data-dn27="url(#linear1)" data-dn28="url(#radial0)" data-dn29="url(#radial1)" data-dn30="#FF8000" data-dn31="#FFFF00" data-dn32="#000000" data-dn33="1" data-dn34="1" data-dn35="10" data-dn36="" data-dn37="0" data-dn38="77"></g></svg>